PathFileType	4	(X/Y/Z)	C:\Users\Basilio\Documents\Thesis Gigler\squatting_fais\c3dfiles\077\SLS_back_pre1\markers_experimental.trc
DataRate	CameraRate	NumFrames	NumMarkers	Units	OrigDataRate	OrigDataStartFrame	OrigNumFrames
200.000000	200.000000	4	60	mm	200.000000	595	1588
Frame#	Time	FHD			RBHD			C7			T10			CLAV			LSHO			LUUPA			LMUPA			LDUPA			LLEP			LMEP			LRAD			LUL			LRFIN			RSHO			RUPA1			RMUPA			RDUPA			RLEP			RMEP			RRAD			RUL			RUFIN			LASI			RASI			USACR			LSACR			RSACR			LTHI1			LTHI2			LTHI3			LTHI4			LLFC			LMFC			LTIB1			LTIB2			LTIB3			LTIB4			LLMAL			LHEE			LMT1			LMT2			LMT5			RTHI			RTHI2			RTHI3			RTHI4			RLFC			RMFC			RTIB1			RTIB2			RTIB3			RTIB4			RLMAL			RMMAL			RHEE			RMT1			RMT2			RMT5			LBHD			
		X1	Y1	Z1	X2	Y2	Z2	X3	Y3	Z3	X4	Y4	Z4	X5	Y5	Z5	X6	Y6	Z6	X7	Y7	Z7	X8	Y8	Z8	X9	Y9	Z9	X10	Y10	Z10	X11	Y11	Z11	X12	Y12	Z12	X13	Y13	Z13	X14	Y14	Z14	X15	Y15	Z15	X16	Y16	Z16	X17	Y17	Z17	X18	Y18	Z18	X19	Y19	Z19	X20	Y20	Z20	X21	Y21	Z21	X22	Y22	Z22	X23	Y23	Z23	X24	Y24	Z24	X25	Y25	Z25	X26	Y26	Z26	X27	Y27	Z27	X28	Y28	Z28	X29	Y29	Z29	X30	Y30	Z30	X31	Y31	Z31	X32	Y32	Z32	X33	Y33	Z33	X34	Y34	Z34	X35	Y35	Z35	X36	Y36	Z36	X37	Y37	Z37	X38	Y38	Z38	X39	Y39	Z39	X40	Y40	Z40	X41	Y41	Z41	X42	Y42	Z42	X43	Y43	Z43	X44	Y44	Z44	X45	Y45	Z45	X46	Y46	Z46	X47	Y47	Z47	X48	Y48	Z48	X49	Y49	Z49	X50	Y50	Z50	X51	Y51	Z51	X52	Y52	Z52	X53	Y53	Z53	X54	Y54	Z54	X55	Y55	Z55	X56	Y56	Z56	X57	Y57	Z57	X58	Y58	Z58	X59	Y59	Z59	X60	Y60	Z60	

596	2.975	-140.4019775390625	1723.447021484375	-1103.024536132813	-284.0979919433594	1609.444580078125	-1022.767700195313	-331.0389404296876	1488.78271484375	-1103.816162109375	-416.7670288085939	1174.133422851563	-1062.234130859375	-175.6948699951172	1414.048828125	-1098.791381835938	-195.1976470947266	1451.789916992188	-1272.251708984375	-38.75864028930665	1377.435913085938	-1378.437255859375	-5.300501346588136	1405.840698242188	-1354.594360351563	29.19452285766602	1366.304931640625	-1386.798461914063	94.23703002929689	1369.337158203125	-1384.822143554688	93.40737152099611	1300.322387695313	-1352.079467773438	387.4875793457032	1374.9248046875	-1270.281982421875	393.5180053710939	1377.267700195313	-1349.849365234375	484.5642089843751	1401.133422851563	-1278.324829101563	-182.4507751464844	1467.444580078125	-941.7231445312502	-29.89959335327149	1422.159545898438	-831.6502685546877	-1.665383934974671	1443.9072265625	-865.8710937500002	39.84986114501954	1415.876098632813	-830.346618652344	105.812858581543	1415.617919921875	-840.6177978515627	102.5306167602539	1339.924072265625	-863.4529418945315	385.2737121582032	1404.872314453125	-957.241882324219	399.5429077148439	1422.002319335938	-878.0610961914065	478.1117553710939	1428.231811523438	-960.446960449219	nan	nan	nan	-294.7289733886719	948.6936035156252	-908.112243652344	-455.6936950683595	1085.544677734375	-1051.313110351563	-472.3826599121095	1062.044799804688	-1081.96435546875	-474.6356506347657	1056.29296875	-1026.357788085938	-285.3487548828126	762.2119140625001	-1241.922119140625	-222.2990112304688	705.6326904296876	-1234.010864257813	-180.1154174804688	728.0899658203126	-1224.006958007813	-225.9994506835938	646.0745849609376	-1218.210571289063	-144.4488372802735	523.2750244140626	-1175.799072265625	-147.1228942871094	519.7053833007814	-1046.591552734375	-181.1733093261719	315.3002624511719	-1072.316772460938	-222.0842285156251	271.9216308593751	-1140.561401367188	-197.3619689941407	264.8216552734376	-1100.98291015625	-236.2131805419922	202.8985900878907	-1059.448364257813	-332.1015625000001	107.5320205688477	-1099.584228515625	-398.6666870117189	80.40050506591798	-1043.656494140625	-183.395492553711	59.29917144775392	-1066.694091796875	-194.8360748291016	44.33760452270509	-1114.551513671875	-305.9295349121094	123.3175048828125	-1013.263977050781	-334.4460144042969	642.5657958984376	-833.3079223632815	-282.9792785644532	595.2412109375001	-829.670104980469	-250.4691772460938	601.0078125000001	-835.203063964844	-302.8435058593751	515.5269165039064	-842.4310302734377	-314.0003356933594	480.5859375000001	-847.9219970703127	-295.8669128417969	450.3752746582032	-975.772888183594	-428.8506164550782	427.8604431152345	-890.8642578125002	-507.8247680664064	497.2610168457032	-870.0745239257815	-510.6841125488282	455.9393310546876	-891.905700683594	-546.6083374023439	456.3439331054689	-939.9885864257815	-724.8595581054689	538.6490478515626	-927.8484497070315	-701.3389282226564	514.0651855468751	-1013.359924316406	-743.8839721679689	607.9172363281251	-985.969177246094	-782.9923095703127	386.1852111816407	-1005.1025390625	-792.7280883789065	385.8710021972657	-967.3975219726565	-822.5938720703127	405.2869262695314	-925.3193969726565	-281.9419250488282	1613.573120117188	-1169.050415039063	
597	2.98	-139.748764038086	1721.771118164063	-1102.969116210938	-283.3466796875001	1607.9365234375	-1022.683654785156	-330.1935729980469	1487.716796875	-1103.64208984375	-416.6622314453126	1172.988525390625	-1062.303344726563	-175.1823272705078	1412.468383789063	-1098.701416015625	-194.8347167968751	1450.389770507813	-1272.032958984375	-38.08702850341798	1376.080322265625	-1378.326782226563	-4.722815513610841	1404.23193359375	-1354.361572265625	28.99028778076173	1365.032836914063	-1386.83154296875	94.94802856445314	1367.7265625	-1384.925537109375	93.94084930419923	1298.720947265625	-1352.13916015625	388.182342529297	1373.313720703125	-1270.4990234375	394.5282287597657	1375.627197265625	-1350.051635742188	485.0547485351564	1398.613525390625	-1278.37548828125	-181.7591857910157	1465.772338867188	-941.6657714843752	-29.27801895141602	1420.489501953125	-831.621520996094	-1.121416091918946	1442.115356445313	-865.8731079101565	40.60009002685548	1414.46435546875	-830.288269042969	106.4003982543946	1413.959594726563	-840.6817626953127	103.0423660278321	1338.126586914063	-863.608093261719	386.304656982422	1401.846069335938	-956.8967285156252	400.2193298339845	1419.673950195313	-878.2839965820315	478.9634094238282	1426.298950195313	-960.7648925781252	nan	nan	nan	-295.3708190917969	947.1492309570315	-907.8519287109377	-455.3060302734376	1084.700317382813	-1051.679809570313	-473.6665039062501	1061.994995117188	-1081.771118164063	-474.1958312988282	1055.59716796875	-1026.585693359375	-285.1198425292969	761.5310058593751	-1241.935791015625	-221.7638702392579	704.7533569335939	-1233.916137695313	-180.1897583007813	727.7483520507814	-1224.1484375	-226.0164031982422	645.7214965820314	-1218.306518554688	-143.9185638427735	522.9416503906251	-1175.579711914063	-146.6667175292969	519.4247436523439	-1046.439086914063	-180.8933868408203	315.0507812500001	-1072.05615234375	-221.7488555908204	271.5346984863282	-1140.331787109375	-197.0965728759766	264.7911071777344	-1100.934448242188	-235.9878997802735	202.7074127197266	-1059.255737304688	-332.0067443847657	107.4549865722657	-1099.476684570313	-398.6954040527345	80.38412475585939	-1043.595703125	-183.7991180419922	58.21741104125978	-1066.373046875	-194.1344604492188	43.77547836303712	-1114.761840820313	-305.9121704101563	123.2651672363282	-1013.164672851563	-335.5135803222657	640.9971923828126	-833.6351318359377	-284.1375122070313	593.5440063476564	-830.0574340820315	-251.7452850341797	599.4277343750001	-835.379333496094	-304.1808471679688	513.9763793945314	-843.0323486328127	-315.2593383789063	479.2699584960939	-848.3884277343752	-297.0529174804688	448.9491271972657	-976.3249511718752	-430.1810607910157	426.4702148437501	-891.4231567382815	-509.1413574218751	496.1872558593751	-870.7773437500002	-512.2160644531251	454.6352844238282	-892.7500000000002	-547.8996582031251	455.3369445800782	-940.557067871094	-725.9550781250001	537.7628173828126	-928.7103271484377	-702.4327392578126	513.0935058593751	-1014.399597167969	-744.8472900390626	606.9562377929689	-986.9392700195315	-784.3073730468752	385.6231384277345	-1006.010803222656	-794.258483886719	385.3891906738282	-968.3135375976565	-824.2347412109377	404.4339294433595	-926.5018310546877	-281.3594360351563	1611.39794921875	-1168.845336914063	
598	2.985	-138.648910522461	1719.824340820313	-1102.746948242188	-282.6586303710938	1606.736572265625	-1022.769470214844	-329.3502807617188	1485.906372070313	-1103.5390625	-416.7218017578126	1171.753784179688	-1062.341918945313	-174.6829376220703	1410.821533203125	-1098.602905273438	-193.6314086914063	1448.61181640625	-1271.791381835938	-37.57323837280274	1374.716430664063	-1378.341674804688	-4.157265186309815	1402.812622070313	-1354.369995117188	30.14253425598145	1363.485595703125	-1386.838134765625	95.54396820068361	1366.454223632813	-1384.975219726563	94.66477966308595	1297.249267578125	-1352.293212890625	388.5625915527345	1371.427490234375	-1270.702270507813	394.6696777343751	1374.0224609375	-1350.153930664063	486.2449951171876	1397.280151367188	-1278.765380859375	-181.170883178711	1464.23095703125	-941.7070922851565	-28.67832374572755	1419.027954101563	-831.6400146484377	-0.438521832227707	1440.743408203125	-865.9313964843752	41.20114517211915	1412.633422851563	-830.304870605469	107.0291976928711	1412.21875	-840.692565917969	103.6685485839844	1336.596557617188	-863.6343994140627	386.6771240234376	1400.279052734375	-957.0927734375002	400.8122863769532	1418.00927734375	-878.386657714844	479.5245056152345	1424.295043945313	-960.896423339844	nan	nan	nan	-296.0301818847657	945.6707763671877	-907.8013305664065	-455.4641418457032	1083.688232421875	-1051.7578125	-472.6286010742189	1059.9599609375	-1082.270141601563	-475.5110168457032	1053.96533203125	-1026.629150390625	-285.2215576171876	760.6343994140626	-1241.894653320313	-221.461654663086	703.9585571289064	-1233.719360351563	-180.2886657714844	727.3234863281251	-1224.14990234375	-225.6000061035157	644.9925537109376	-1218.20166015625	-143.1282196044922	522.5550537109376	-1175.365966796875	-146.0873718261719	519.1059570312501	-1046.397827148438	-180.62939453125	314.6307983398438	-1071.836303710938	-221.2652740478516	271.3571777343751	-1139.982177734375	-196.6867675781251	264.3522033691407	-1100.665283203125	-235.8514862060547	202.6166381835938	-1059.194946289063	-331.6833190917969	107.3139953613282	-1099.396240234375	-398.7058715820314	80.32574462890626	-1043.570922851563	-183.9406890869141	58.1824188232422	-1066.368530273438	-194.2419128417969	43.8070182800293	-1114.711547851563	-305.9376831054688	123.2242889404297	-1013.059875488281	-336.7920837402344	639.5596313476564	-834.120544433594	-285.4897460937501	591.9958496093751	-830.3861083984377	-253.0203704833985	597.8999633789064	-835.712341308594	-305.4217834472657	512.5919799804689	-843.4215087890627	-316.6951904296876	477.6640014648439	-848.8416137695315	-298.3561096191407	448.0550231933595	-976.0935668945315	-431.6431579589845	425.1851501464845	-892.1360473632815	-510.3634643554689	494.8392333984376	-871.4608154296877	-513.4598999023439	453.4764099121095	-893.3374633789065	-549.0772094726564	454.3303833007814	-941.4277954101565	-727.0180053710939	536.8574218750001	-929.6506347656252	-703.5430908203126	512.0560302734376	-1015.267822265625	-745.4380493164064	606.1236572265626	-987.6326904296877	-785.868591308594	384.673553466797	-1007.438293457031	-795.8114013671877	384.6033935546876	-969.6589355468752	-825.624206542969	403.9752502441407	-927.6918945312502	-280.5850219726563	1610.0615234375	-1168.833740234375	
599	2.99	-138.2563629150391	1718.358764648438	-1102.747924804688	-281.8834838867188	1605.108642578125	-1022.597351074219	-328.5951843261719	1484.650634765625	-1103.448852539063	-416.7346801757814	1170.482177734375	-1062.319702148438	-173.9938354492188	1409.108276367188	-1098.481567382813	-193.3412322998047	1447.3193359375	-1271.736572265625	-36.87174606323243	1373.410278320313	-1378.317138671875	-3.443766117095948	1401.297729492188	-1354.30029296875	30.29722213745118	1362.257934570313	-1386.903686523438	96.17124176025393	1365.0927734375	-1385.0771484375	95.14939880371095	1296.046630859375	-1352.8623046875	389.2744445800782	1369.815795898438	-1271.030151367188	395.9623107910157	1372.444091796875	-1350.43798828125	485.981658935547	1395.61962890625	-1278.784423828125	-180.3851165771485	1462.689086914063	-941.713806152344	-27.99723052978516	1417.532470703125	-831.5830078125002	0.163906529545784	1438.884765625	-865.9318847656252	41.79333114624024	1411.093017578125	-830.3237915039065	107.6549758911133	1410.50244140625	-840.8389282226565	104.181625366211	1334.60107421875	-863.7111816406252	387.231170654297	1398.222900390625	-957.139831542969	401.873748779297	1416.213134765625	-878.284851074219	480.1557006835939	1422.068115234375	-960.9912109375002	nan	nan	nan	-296.7041015625001	944.0864257812502	-907.7346801757815	-455.658660888672	1082.56689453125	-1051.85595703125	-472.8472290039064	1058.870239257813	-1082.3076171875	-475.5588989257814	1053.132202148438	-1026.773193359375	-285.1687316894532	759.4869384765626	-1241.844116210938	-221.0874786376954	703.2854614257814	-1233.702880859375	-180.1217651367188	726.6182861328126	-1223.955444335938	-225.0254669189454	644.2421264648439	-1218.260986328125	-142.2285766601563	522.0827636718751	-1175.234008789063	-145.439453125	518.6558227539064	-1046.265625	-180.0506744384766	314.5596008300782	-1071.703369140625	-220.7824249267579	270.9705200195313	-1139.792602539063	-196.3237915039063	264.0720825195313	-1100.457397460938	-235.4270172119141	202.1632690429688	-1058.9404296875	-331.3376464843751	107.0049667358399	-1099.31982421875	-398.7283020019532	80.34399414062501	-1043.590454101563	-183.9187316894532	58.1648292541504	-1066.291015625	-194.2377471923829	43.78569412231446	-1114.6884765625	-305.8205871582032	123.2790679931641	-1013.009033203125	-337.8649291992188	637.9571533203126	-834.4375000000002	-286.5832519531251	590.4439697265626	-830.5681762695315	-254.1920013427735	596.0371704101564	-835.8560180664065	-306.8187561035157	510.9515380859376	-843.8836059570315	-317.9854431152344	476.1206665039064	-849.2812500000002	-299.7128906250001	446.4785461425782	-977.1829833984377	-432.8750915527345	423.9851379394532	-892.717712402344	-511.5687255859376	493.6839599609376	-872.086853027344	-514.7295532226564	452.1214599609376	-894.093688964844	-550.2961425781251	453.1553649902345	-942.1013793945315	-728.1074829101564	536.0137939453126	-930.5107421875002	-704.3582763671876	511.1072387695314	-1016.041809082031	-746.2711181640626	605.3783569335939	-988.4949951171877	-787.218688964844	384.2424316406251	-1008.298645019531	-797.348815917969	384.0656127929689	-970.8834228515627	-827.3679809570315	403.2989501953126	-929.0432128906252	-279.7293395996094	1608.830688476563	-1168.655883789063	
